<svg width="154" height="64" viewBox="0 0 154 64" fill="none" xmlns="http://www.w3.org/2000/svg">
<path d="M28.632 8.6136C26.8341 10.7424 23.9576 12.4214 21.0811 12.1815C20.7215 9.3032 22.1298 6.24496 23.7778 4.35605C25.5757 2.16731 28.7218 0.608212 31.2688 0.488281C31.5684 3.48655 30.3998 6.42486 28.632 8.6136ZM31.2388 12.7512C27.0738 12.5114 23.5082 15.1198 21.5306 15.1198C19.523 15.1198 16.4967 12.8711 13.2007 12.9311C8.91585 12.9911 4.93068 15.4197 2.74333 19.2874C-1.75123 27.023 1.57474 38.4764 5.91948 44.7728C8.0469 47.891 10.5938 51.309 13.9497 51.1891C17.1259 51.0691 18.3844 49.1203 22.2197 49.1203C26.085 49.1203 27.1937 51.1891 30.5496 51.1291C34.0254 51.0691 36.2128 48.0109 38.3402 44.8927C40.7672 41.3547 41.7561 37.9067 41.816 37.7268C41.7561 37.6669 35.1041 35.1183 35.0442 27.4427C34.9843 21.0264 40.2878 17.9682 40.5275 17.7883C37.5312 13.3509 32.8568 12.8711 31.2388 12.7512ZM55.2996 4.05623V50.7993H62.5508V34.8185H72.5887C81.7576 34.8185 88.1998 28.5221 88.1998 19.4074C88.1998 10.2926 81.8774 4.05623 72.8284 4.05623H55.2996ZM62.5508 10.1727H70.9107C77.2031 10.1727 80.7987 13.5308 80.7987 19.4374C80.7987 25.344 77.2031 28.732 70.8808 28.732H62.5508V10.1727ZM101.444 51.1591C105.998 51.1591 110.223 48.8504 112.141 45.1925H112.291V50.7993H119.002V27.5327C119.002 20.7866 113.609 16.4391 105.309 16.4391C97.6084 16.4391 91.9153 20.8465 91.7055 26.9031H98.2376C98.7769 24.0247 101.444 22.1358 105.099 22.1358C109.534 22.1358 112.021 24.2046 112.021 28.0124V30.5909L102.972 31.1306C94.5521 31.6403 89.9976 35.0883 89.9976 41.0849C89.9976 47.1414 94.7019 51.1591 101.444 51.1591ZM103.391 45.6123C99.526 45.6123 97.069 43.7533 97.069 40.905C97.069 37.9667 99.4361 36.2577 103.961 35.9878L112.021 35.4781V38.1166C112.021 42.4941 108.305 45.6123 103.391 45.6123ZM127.962 63.512C135.033 63.512 138.359 60.8135 141.265 52.6282L154 16.8888H146.629L138.089 44.5029H137.939L129.4 16.8888H121.819L134.104 50.9192L133.445 52.988C132.336 56.496 130.538 57.8452 127.332 57.8452C126.763 57.8452 125.654 57.7853 125.205 57.7253V63.3321C125.624 63.452 127.422 63.512 127.962 63.512Z" fill="black"/>
</svg>
