<svg width="246" height="48" viewBox="0 0 246 48" fill="none" xmlns="http://www.w3.org/2000/svg">
<path d="M15.5841 47.0723H6.31457V23.9646H0V16.4412H6.31433V11.0877C6.31433 4.74386 9.10717 0.194092 18.3516 0.194092C20.3068 0.194092 23.3764 0.588184 23.3764 0.588184V7.57409H20.1523C16.8672 7.57409 15.5846 8.57334 15.5846 11.3359V16.4412H23.2534L22.5705 23.9646H15.5843L15.5841 47.0723ZM36.8533 15.8399C36.7182 15.8399 36.5792 15.8449 36.4417 15.8483C27.8465 15.8483 23.9139 22.3137 23.9139 31.4914C23.9139 43.0529 29.015 47.6802 36.5089 47.6802C40.7964 47.6802 43.6133 45.8756 45.3255 42.5078V47.0755H54.1421V16.4444H45.3255V21.155C43.9275 18.1243 41.0318 15.8759 36.8533 15.8399ZM39.0951 23.078C42.7051 23.078 44.8719 25.5961 44.8719 29.8792L44.8802 34.2538C44.8802 37.1406 43.0906 40.5179 39.0951 40.5179C32.9524 40.5179 33.1165 33.8853 33.1165 31.6762C33.1165 24.2453 36.3893 23.078 39.0951 23.078ZM57.7027 31.7615C57.7027 28.0393 57.5246 15.8599 73.3926 15.8599C79.7623 15.8599 82.4221 17.8852 82.4221 17.8852L80.2843 24.5156C80.2843 24.5156 77.628 23.0529 74.1668 23.0529C69.7336 23.0529 66.9049 25.6229 66.9049 30.1446L66.9098 33.3869C66.9098 37.7317 69.6392 40.6321 74.1759 40.6321C77.3291 40.6321 80.2354 39.1556 80.2354 39.1556L82.3677 45.6475C82.3677 45.6475 79.9357 47.6856 73.4371 47.6856C58.3283 47.6856 57.703 36.7583 57.703 31.7615H57.7027ZM134.117 15.8483C142.713 15.8483 146.707 22.3137 146.707 31.4914C146.707 43.0529 141.606 47.6802 134.112 47.6802C129.825 47.6802 126.655 45.8758 124.943 42.5078V47.0755L116.237 47.0721V1.12545L125.48 0.319306V20.74C126.814 17.1674 131.198 15.8483 134.117 15.8483ZM131.526 23.078C127.916 23.078 125.48 25.5961 125.48 29.8792L125.472 34.2538C125.466 37.1406 127.158 40.5179 131.526 40.5179C137.669 40.5179 137.504 33.8853 137.504 31.6762C137.504 24.2453 134.232 23.078 131.526 23.078ZM98.4598 15.8736C88.7108 15.8736 83.564 21.189 83.564 30.6349V32.3898C83.564 44.6497 90.7917 47.8062 99.4086 47.8062C107.784 47.8062 111.575 45.4635 111.575 45.4635L109.846 39.2249C109.846 39.2249 105.386 41.1223 100.517 41.1223C95.4689 41.1223 93.298 39.8358 92.7415 34.9846H112.314V29.9798C112.314 19.7334 106.538 15.8734 98.4595 15.8734L98.4598 15.8736ZM98.6947 22.1206C102.069 22.1206 104.256 24.1899 104.136 28.9891H92.7585C92.9558 23.938 95.3139 22.1206 98.6947 22.1206ZM165.138 15.8316C155.126 15.8316 149.856 21.4733 149.856 31.5837C149.856 45.4556 158.941 47.6886 165.155 47.6886C174.251 47.6886 180.302 42.7915 180.302 31.7096C180.302 20.1754 173.498 15.8316 165.138 15.8316ZM165.012 23.1031C169.414 23.1031 171.158 26.3978 171.158 30.148V33.3724C171.158 37.9155 168.718 40.5433 164.995 40.5433C161.514 40.5433 159.067 38.0852 159.067 33.3724V30.148C159.067 25.1218 161.978 23.1031 165.012 23.1031ZM198.716 15.8316C188.705 15.8316 183.434 21.4733 183.434 31.5837C183.434 45.4556 192.52 47.6886 198.733 47.6886C207.829 47.6886 213.881 42.7915 213.881 31.7096C213.881 20.1754 207.076 15.8316 198.716 15.8316ZM198.59 23.1031C202.993 23.1031 204.737 26.3978 204.737 30.148V33.3724C204.737 37.9155 202.296 40.5433 198.574 40.5433C195.092 40.5433 192.646 38.0852 192.646 33.3724V30.148C192.646 25.1218 195.557 23.1031 198.59 23.1031ZM217.374 47.0723V1.12545L226.644 0.319306V31.1158L235.841 16.4412H245.631L236.037 31.6398L246 47.0723H236.182L226.644 32.0875V47.0723H217.374Z" fill="#1877F2"/>
</svg>
