<svg width="218" height="72" viewBox="0 0 218 72" fill="none" xmlns="http://www.w3.org/2000/svg">
<path d="M28.9642 33.1606V25.6132H54.2213C54.4792 26.9448 54.6317 28.5238 54.6317 30.2396C54.6317 35.8975 53.0847 42.9027 48.0965 47.8922C43.245 52.9448 37.0517 55.6396 28.8326 55.6396C13.6099 55.6396 0.812988 43.2448 0.812988 28.0185C0.812988 12.7922 13.6099 0.397461 28.8326 0.397461C37.2517 0.397461 43.245 3.69746 47.7597 8.00799L42.4399 13.329C39.2091 10.2975 34.8312 7.93957 28.8326 7.93957C17.7195 7.93957 9.03208 16.8975 9.03208 28.0185C9.03208 39.1396 17.7195 48.0975 28.8326 48.0975C36.0414 48.0975 40.1457 45.2027 42.7767 42.5711C44.9183 40.429 46.3285 37.3606 46.8757 33.1606H28.9642Z" fill="#4285F4"/>
<path d="M93.1173 37.8501C93.1173 48.0922 85.1034 55.6343 75.2689 55.6343C65.4344 55.6343 57.4206 48.0869 57.4206 37.8501C57.4206 27.5448 65.4344 20.0659 75.2689 20.0659C85.1034 20.0659 93.1173 27.5448 93.1173 37.8501ZM85.3034 37.8501C85.3034 31.4501 80.6571 27.0711 75.2689 27.0711C69.8807 27.0711 65.2345 31.4501 65.2345 37.8501C65.2345 44.1817 69.8807 48.629 75.2689 48.629C80.6571 48.6343 85.3034 44.1869 85.3034 37.8501Z" fill="#EA4335"/>
<path d="M131.529 37.8501C131.529 48.0922 123.515 55.6343 113.681 55.6343C103.846 55.6343 95.8325 48.0869 95.8325 37.8501C95.8325 27.5448 103.846 20.0659 113.681 20.0659C123.515 20.0659 131.529 27.5448 131.529 37.8501ZM123.715 37.8501C123.715 31.4501 119.069 27.0711 113.681 27.0711C108.293 27.0711 103.646 31.4501 103.646 37.8501C103.646 44.1817 108.293 48.629 113.681 48.629C119.069 48.6343 123.715 44.1869 123.715 37.8501Z" fill="#FBBC05"/>
<path d="M168.405 53.0764C168.405 66.2132 160.659 71.6027 151.498 71.6027C142.879 71.6027 137.691 65.808 135.739 61.0922L142.542 58.2606C143.753 61.1554 146.72 64.5922 151.498 64.5922C157.36 64.5922 160.996 60.9554 160.996 54.1501V51.5922H160.728C158.975 53.7501 155.608 55.6343 151.367 55.6343C142.474 55.6343 134.323 47.8869 134.323 37.9133C134.323 27.8764 142.474 20.0606 151.367 20.0606C155.608 20.0606 158.975 21.9448 160.728 24.0343H160.996V21.129H168.405V53.0764ZM161.533 37.9185C161.533 31.6501 157.355 27.0711 152.035 27.0711C146.647 27.0711 142.132 31.6501 142.132 37.9185C142.132 44.1185 146.647 48.629 152.035 48.629C157.36 48.6343 161.533 44.1185 161.533 37.9185Z" fill="#4285F4"/>
<path d="M181.559 2.45536V54.5606H173.745V2.45536H181.559Z" fill="#34A853"/>
<path d="M211.205 43.7132L217.267 47.7554C215.315 50.6501 210.6 55.6396 202.449 55.6396C192.346 55.6396 184.801 47.8238 184.801 37.8554C184.801 27.2764 192.409 20.0711 201.57 20.0711C210.8 20.0711 215.309 27.4132 216.793 31.3869L217.603 33.408L193.825 43.2448C195.646 46.8132 198.471 48.6343 202.444 48.6343C206.422 48.6343 209.184 46.6764 211.205 43.7132ZM192.546 37.3133L208.442 30.7132C207.569 28.4922 204.938 26.9396 201.844 26.9396C197.866 26.9396 192.346 30.4396 192.546 37.3133Z" fill="#EA4335"/>
</svg>
