<svg width="229" height="56" viewBox="0 0 229 56" fill="none" xmlns="http://www.w3.org/2000/svg">
<path d="M225.182 48.364C224.182 48.3736 223.226 48.7788 222.524 49.491C221.822 50.2031 221.431 51.1642 221.436 52.1641C221.441 53.164 221.841 54.1213 222.55 54.8267C223.259 55.532 224.218 55.928 225.218 55.928C226.218 55.928 227.177 55.532 227.886 54.8267C228.595 54.1213 228.995 53.164 229 52.1641C229.005 51.1642 228.613 50.2031 227.911 49.491C227.21 48.7788 226.254 48.3736 225.254 48.364H225.182ZM225.182 55.495C224.526 55.5059 223.881 55.3221 223.33 54.9669C222.779 54.6116 222.345 54.1008 222.084 53.499C221.823 52.8973 221.746 52.2317 221.863 51.5863C221.981 50.941 222.287 50.3449 222.743 49.8734C223.199 49.402 223.784 49.0763 224.425 48.9377C225.066 48.799 225.734 48.8536 226.344 49.0944C226.954 49.3353 227.479 49.7517 227.853 50.2909C228.226 50.8302 228.431 51.468 228.442 52.1238V52.1795C228.461 53.0398 228.137 53.8722 227.541 54.4937C226.946 55.1151 226.128 55.4747 225.268 55.4933H225.182M210.664 47.3307H202.445V34.4607C202.445 31.3917 202.391 27.441 198.171 27.441C193.891 27.441 193.236 30.7848 193.236 34.2373V47.3299H185.018V20.8638H192.907V24.4807H193.018C193.807 23.1307 194.948 22.0202 196.319 21.2673C197.69 20.5145 199.239 20.1475 200.802 20.2055C209.131 20.2055 210.667 25.6843 210.667 32.8119L210.664 47.3307ZM175.745 17.2461C174.801 17.2463 173.879 16.9667 173.095 16.4428C172.311 15.9189 171.699 15.1742 171.338 14.3028C170.977 13.4315 170.882 12.4726 171.066 11.5474C171.25 10.6223 171.704 9.7724 172.371 9.1053C173.038 8.43821 173.888 7.98384 174.813 7.79965C175.738 7.61547 176.697 7.70974 177.568 8.07055C178.44 8.43136 179.185 9.0425 179.709 9.82668C180.233 10.6109 180.513 11.5329 180.513 12.4761C180.513 13.1024 180.39 13.7226 180.15 14.3013C179.911 14.8799 179.56 15.4057 179.117 15.8487C178.674 16.2916 178.148 16.643 177.57 16.8828C176.991 17.1225 176.371 17.246 175.745 17.2461ZM179.854 47.3307H171.627V20.8638H179.854V47.3307ZM214.761 0.076043H167.497C166.425 0.0639371 165.391 0.478217 164.624 1.22785C163.856 1.97748 163.418 3.00113 163.405 4.07386V51.5332C163.417 52.6064 163.855 53.6308 164.623 54.3812C165.39 55.1316 166.424 55.5467 167.497 55.5353H214.761C215.836 55.5487 216.873 55.1348 217.643 54.3845C218.414 53.6341 218.855 52.6086 218.87 51.5332V4.07044C218.854 2.99558 218.413 1.97076 217.643 1.22115C216.872 0.47154 215.836 0.0584427 214.761 0.0726188M141.036 27.2518C136.927 27.2518 134.462 29.9955 134.462 33.9933C134.462 37.9911 136.927 40.7373 141.036 40.7373C145.146 40.7373 147.617 37.9979 147.617 33.9933C147.617 29.9886 145.151 27.2518 141.036 27.2518ZM155.183 47.3153H147.617V43.8055H147.505C146.556 45.0821 145.325 46.1224 143.907 46.8452C142.49 47.5681 140.925 47.9539 139.335 47.9728C131.438 47.9728 126.237 42.274 126.237 34.215C126.237 26.8135 130.84 20.0172 138.407 20.0172C141.808 20.0172 144.985 20.9477 146.848 23.527H146.956V8.27114H155.182L155.183 47.3153ZM115.685 31.009C115.701 30.3423 115.581 29.6793 115.333 29.0602C115.085 28.4411 114.714 27.8789 114.242 27.4074C113.77 26.936 113.208 26.5652 112.588 26.3176C111.969 26.07 111.306 25.9507 110.639 25.9668C109.203 25.8775 107.79 26.356 106.704 27.2992C105.617 28.2424 104.945 29.5748 104.832 31.009H115.685ZM122.647 42.7371C121.281 44.3932 119.564 45.7248 117.62 46.6355C115.677 47.5462 113.555 48.0132 111.408 48.0028C103.19 48.0028 96.6102 42.5171 96.6102 34.0224C96.6102 25.5277 103.189 20.0446 111.408 20.0446C119.09 20.0446 123.907 25.5234 123.907 34.0224V36.5991H104.832C105.069 38.0605 105.827 39.3868 106.965 40.3337C108.103 41.2805 109.545 41.7842 111.025 41.7518C112.195 41.7445 113.345 41.4448 114.369 40.88C115.393 40.3151 116.26 39.503 116.89 38.5176L122.647 42.7371ZM40.9489 20.857H48.841V24.4739H48.9531C49.7414 23.1233 50.8817 22.0122 52.2523 21.2593C53.6228 20.5063 55.1721 20.1397 56.7348 20.1987C65.0685 20.1987 66.6026 25.6818 66.6026 32.8051V47.3188H58.3844V34.4513C58.3844 31.3797 58.3279 27.4316 54.1041 27.4316C49.8323 27.4316 49.1731 30.7762 49.1731 34.2278V47.3153H40.9549L40.9489 20.857ZM70.7699 8.27371H78.9881V31.6143L88.3021 20.8424H98.378L87.5916 33.0953L98.1511 47.3316H87.8218L79.0977 34.2492H78.9898V47.3299H70.7716L70.7699 8.27371ZM28.1739 20.8544H36.3921V47.3205H28.1739V20.8544ZM32.283 7.69672C33.2259 7.69689 34.1475 7.97664 34.9314 8.50059C35.7153 9.02454 36.3262 9.76917 36.6869 10.6403C37.0476 11.5115 37.1419 12.47 36.9579 13.3947C36.7738 14.3195 36.3197 15.1689 35.6529 15.8355C34.9862 16.5022 34.1367 16.9561 33.2119 17.14C32.2872 17.3239 31.3286 17.2294 30.4575 16.8686C29.5865 16.5077 28.8419 15.8967 28.3181 15.1127C27.7943 14.3287 27.5147 13.407 27.5147 12.4641C27.5147 11.838 27.6381 11.218 27.8777 10.6395C28.1174 10.0611 28.4686 9.53547 28.9114 9.09276C29.3542 8.65005 29.8798 8.29891 30.4583 8.05937C31.0368 7.81984 31.6569 7.69661 32.283 7.69672ZM0 8.2797H8.55464V39.4404H24.3918V47.335H0V8.2797ZM225.782 52.3858C225.922 52.3872 226.062 52.3597 226.192 52.3049C226.321 52.2502 226.438 52.1693 226.535 52.0675C226.632 51.9656 226.708 51.8449 226.756 51.7128C226.805 51.5807 226.826 51.44 226.817 51.2995C226.817 50.529 226.353 50.1609 225.399 50.1609H223.858V54.1947H224.438V52.4363H225.15L225.166 52.4577L226.271 54.1947H226.891L225.702 52.3969L225.782 52.3858ZM225.111 51.9817H224.439V50.618H225.291C225.731 50.618 226.233 50.6899 226.233 51.2661C226.233 51.9287 225.725 51.9817 225.108 51.9817" fill="#0A66C2"/>
</svg>
