<svg width="179" height="37" viewBox="0 0 179 37" fill="none" xmlns="http://www.w3.org/2000/svg">
<g filter="url(#filter0_d_209_45)">
<path fill-rule="evenodd" clip-rule="evenodd" d="M22.2084 8.57578C21.0367 7.79288 19.6592 7.375 18.25 7.375V0.25C21.0684 0.25 23.8235 1.08575 26.1669 2.65156C28.5103 4.21736 30.3367 6.44292 31.4153 9.04674C32.4938 11.6506 32.776 14.5158 32.2262 17.28C31.6764 20.0443 30.3192 22.5834 28.3263 24.5763C26.3334 26.5692 23.7943 27.9264 21.03 28.4762C18.2658 29.026 15.4006 28.7438 12.7967 27.6653C10.1929 26.5867 7.96736 24.7603 6.40156 22.4169C4.83575 20.0735 4 17.3184 4 14.5H11.125C11.125 15.9092 11.5429 17.2867 12.3258 18.4584C13.1087 19.6301 14.2215 20.5434 15.5234 21.0826C16.8253 21.6219 18.2579 21.763 19.64 21.4881C21.0221 21.2132 22.2917 20.5346 23.2882 19.5382C24.2846 18.5417 24.9632 17.2721 25.2381 15.89C25.513 14.5079 25.3719 13.0753 24.8326 11.7734C24.2934 10.4715 23.3801 9.35867 22.2084 8.57578Z" fill="white"/>
<path d="M43.147 10.7266C43.0715 10.0195 42.753 9.46889 42.1916 9.07485C41.6357 8.68082 40.9124 8.4838 40.0217 8.4838C39.3956 8.4838 38.8585 8.57826 38.4105 8.76718C37.9625 8.9561 37.6197 9.2125 37.3822 9.53636C37.1447 9.86022 37.0233 10.23 37.0179 10.6456C37.0179 10.991 37.0962 11.2906 37.2527 11.5443C37.4146 11.798 37.6332 12.0139 37.9085 12.192C38.1838 12.3648 38.4888 12.5105 38.8234 12.6293C39.1581 12.748 39.4955 12.8479 39.8355 12.9288L41.3901 13.3175C42.0162 13.4632 42.618 13.6602 43.1956 13.9085C43.7786 14.1568 44.2994 14.4699 44.7582 14.8477C45.2224 15.2256 45.5895 15.6817 45.8594 16.216C46.1293 16.7504 46.2642 17.3766 46.2642 18.0945C46.2642 19.0661 46.0159 19.9216 45.5193 20.6611C45.0227 21.3952 44.3048 21.97 43.3656 22.3857C42.4318 22.7959 41.301 23.001 39.9732 23.001C38.6831 23.001 37.5631 22.8013 36.6131 22.4018C35.6685 22.0024 34.929 21.4195 34.3946 20.653C33.8656 19.8865 33.5795 18.9527 33.5364 17.8516H36.4916C36.5348 18.4291 36.7129 18.9095 37.026 19.2928C37.3391 19.676 37.7466 19.9621 38.2486 20.151C38.756 20.3399 39.3227 20.4344 39.9489 20.4344C40.602 20.4344 41.1742 20.3372 41.6653 20.1429C42.1619 19.9432 42.5506 19.6679 42.8313 19.317C43.1119 18.9608 43.255 18.5452 43.2604 18.0702C43.255 17.6384 43.1281 17.2821 42.8798 17.0014C42.6315 16.7153 42.2834 16.4778 41.8354 16.2889C41.3928 16.0946 40.8746 15.9219 40.2808 15.7707L38.3943 15.2849C37.0287 14.9341 35.9491 14.4024 35.1557 13.6899C34.3676 12.972 33.9736 12.0193 33.9736 10.8318C33.9736 9.85483 34.2381 8.99929 34.767 8.2652C35.3014 7.5311 36.0274 6.96164 36.945 6.55681C37.8626 6.14659 38.9017 5.94147 40.0622 5.94147C41.2389 5.94147 42.2699 6.14659 43.1551 6.55681C44.0457 6.96164 44.7447 7.52571 45.2521 8.249C45.7595 8.9669 46.0213 9.79275 46.0375 10.7266H43.147ZM48.8126 22.75V10.3136H51.614V12.4268H51.7598C52.0189 11.7143 52.448 11.1584 53.0471 10.7589C53.6463 10.3541 54.3615 10.1517 55.1927 10.1517C56.0348 10.1517 56.7446 10.3568 57.3221 10.767C57.9051 11.1719 58.3153 11.7251 58.5528 12.4268H58.6824C58.9576 11.7359 59.4218 11.1854 60.075 10.7751C60.7335 10.3595 61.5135 10.1517 62.4149 10.1517C63.5592 10.1517 64.493 10.5133 65.2163 11.2366C65.9396 11.9599 66.3013 13.0152 66.3013 14.4024V22.75H63.3622V14.8558C63.3622 14.0839 63.1571 13.5199 62.7468 13.1636C62.3366 12.802 61.8346 12.6212 61.2409 12.6212C60.5338 12.6212 59.9805 12.8425 59.5811 13.2851C59.187 13.7223 58.99 14.2918 58.99 14.9935V22.75H56.1157V14.7344C56.1157 14.092 55.9214 13.5793 55.5328 13.196C55.1495 12.8128 54.6476 12.6212 54.0268 12.6212C53.6058 12.6212 53.2226 12.7291 52.8771 12.945C52.5316 13.1555 52.2564 13.4551 52.0512 13.8437C51.8461 14.227 51.7436 14.675 51.7436 15.1878V22.75H48.8126ZM72.8534 23.001C72.0653 23.001 71.3555 22.8607 70.724 22.58C70.0979 22.2939 69.6013 21.8729 69.2342 21.3169C68.8726 20.7609 68.6918 20.0754 68.6918 19.2604C68.6918 18.5587 68.8213 17.9784 69.0804 17.5196C69.3395 17.0608 69.693 16.6937 70.1411 16.4185C70.5891 16.1432 71.0938 15.9354 71.6551 15.795C72.2219 15.6493 72.8075 15.544 73.4121 15.4793C74.1408 15.4037 74.7318 15.3362 75.1852 15.2768C75.6386 15.2121 75.9679 15.1149 76.173 14.9854C76.3835 14.8504 76.4888 14.6426 76.4888 14.3619V14.3134C76.4888 13.7034 76.308 13.2311 75.9463 12.8964C75.5847 12.5618 75.0638 12.3945 74.3837 12.3945C73.6658 12.3945 73.0963 12.551 72.6753 12.8641C72.2597 13.1771 71.979 13.5469 71.8332 13.9733L69.0966 13.5847C69.3125 12.829 69.6688 12.1974 70.1653 11.6901C70.6619 11.1773 71.2692 10.794 71.9871 10.5403C72.705 10.2812 73.4984 10.1517 74.3675 10.1517C74.9666 10.1517 75.5631 10.2219 76.1568 10.3622C76.7506 10.5026 77.293 10.7347 77.7842 11.0585C78.2754 11.377 78.6695 11.8115 78.9663 12.3621C79.2686 12.9126 79.4198 13.6008 79.4198 14.4267V22.75H76.6021V21.0416H76.505C76.3269 21.3871 76.0759 21.7109 75.752 22.0132C75.4335 22.3101 75.0314 22.5503 74.5456 22.7338C74.0652 22.9119 73.5011 23.001 72.8534 23.001ZM73.6145 20.8473C74.2028 20.8473 74.7129 20.7312 75.1448 20.4991C75.5766 20.2616 75.9085 19.9486 76.1406 19.5599C76.3781 19.1713 76.4969 18.7476 76.4969 18.2888V16.8233C76.4051 16.8989 76.2486 16.969 76.0273 17.0338C75.8114 17.0986 75.5685 17.1553 75.2986 17.2038C75.0287 17.2524 74.7615 17.2956 74.497 17.3334C74.2325 17.3712 74.0031 17.4035 73.8088 17.4305C73.3716 17.4899 72.9803 17.5871 72.6348 17.722C72.2894 17.857 72.0168 18.0459 71.8171 18.2888C71.6173 18.5263 71.5175 18.8339 71.5175 19.2118C71.5175 19.7516 71.7145 20.1591 72.1085 20.4344C72.5026 20.7097 73.0046 20.8473 73.6145 20.8473ZM82.3669 22.75V10.3136H85.2088V12.3864H85.3384C85.5651 11.6685 85.9537 11.1152 86.5043 10.7266C87.0602 10.3325 87.6945 10.1355 88.407 10.1355C88.5689 10.1355 88.7497 10.1436 88.9494 10.1598C89.1546 10.1706 89.3246 10.1895 89.4595 10.2165V12.9126C89.3354 12.8695 89.1384 12.8317 88.8685 12.7993C88.604 12.7615 88.3476 12.7426 88.0993 12.7426C87.5649 12.7426 87.0845 12.8587 86.6581 13.0908C86.2371 13.3175 85.9051 13.6332 85.6622 14.0381C85.4193 14.4429 85.2979 14.9098 85.2979 15.4388V22.75H82.3669ZM98.2848 10.3136V12.5807H91.1355V10.3136H98.2848ZM92.9006 7.33409H95.8315V19.0094C95.8315 19.4034 95.8909 19.7057 96.0097 19.9162C96.1338 20.1213 96.2958 20.2616 96.4955 20.3372C96.6952 20.4128 96.9165 20.4506 97.1594 20.4506C97.3429 20.4506 97.5102 20.4371 97.6614 20.4101C97.8179 20.3831 97.9367 20.3588 98.0176 20.3372L98.5115 22.6286C98.355 22.6825 98.131 22.7419 97.8395 22.8067C97.5534 22.8714 97.2026 22.9092 96.7869 22.92C96.0529 22.9416 95.3916 22.831 94.8033 22.5881C94.2149 22.3398 93.748 21.9565 93.4026 21.4384C93.0625 20.9202 92.8952 20.2724 92.9006 19.4952V7.33409ZM104.222 22.75L99.5418 6.16818H102.772L105.76 18.3536H105.914L109.104 6.16818H112.043L115.241 18.3616H115.387L118.374 6.16818H121.605L116.925 22.75H113.962L110.642 11.1152H110.513L107.185 22.75H104.222ZM127.795 22.9929C126.548 22.9929 125.471 22.7338 124.564 22.2156C123.663 21.692 122.969 20.9526 122.484 19.9972C121.998 19.0364 121.755 17.9055 121.755 16.6047C121.755 15.3254 121.998 14.2027 122.484 13.2365C122.975 12.2649 123.66 11.5092 124.54 10.9695C125.42 10.4243 126.454 10.1517 127.641 10.1517C128.408 10.1517 129.131 10.2758 129.811 10.5241C130.496 10.767 131.101 11.1449 131.625 11.6577C132.154 12.1705 132.569 12.8236 132.871 13.617C133.174 14.4051 133.325 15.3443 133.325 16.4347V17.3334H123.131V15.3578H130.515C130.51 14.7964 130.388 14.2972 130.151 13.8599C129.913 13.4173 129.582 13.0692 129.155 12.8155C128.734 12.5618 128.243 12.4349 127.682 12.4349C127.082 12.4349 126.556 12.5807 126.103 12.8722C125.649 13.1582 125.296 13.5361 125.042 14.0057C124.794 14.4699 124.667 14.98 124.661 15.5359V17.2605C124.661 17.9838 124.794 18.6045 125.058 19.1227C125.323 19.6355 125.692 20.0295 126.167 20.3048C126.642 20.5747 127.198 20.7097 127.835 20.7097C128.262 20.7097 128.648 20.6503 128.993 20.5315C129.339 20.4074 129.638 20.2266 129.892 19.9891C130.146 19.7516 130.337 19.4574 130.467 19.1065L133.203 19.4142C133.031 20.1375 132.701 20.769 132.216 21.3088C131.735 21.8432 131.12 22.2588 130.37 22.5557C129.619 22.8472 128.761 22.9929 127.795 22.9929ZM139.383 23.001C138.595 23.001 137.885 22.8607 137.254 22.58C136.628 22.2939 136.131 21.8729 135.764 21.3169C135.402 20.7609 135.221 20.0754 135.221 19.2604C135.221 18.5587 135.351 17.9784 135.61 17.5196C135.869 17.0608 136.223 16.6937 136.671 16.4185C137.119 16.1432 137.623 15.9354 138.185 15.795C138.752 15.6493 139.337 15.544 139.942 15.4793C140.67 15.4037 141.262 15.3362 141.715 15.2768C142.168 15.2121 142.498 15.1149 142.703 14.9854C142.913 14.8504 143.018 14.6426 143.018 14.3619V14.3134C143.018 13.7034 142.838 13.2311 142.476 12.8964C142.114 12.5618 141.593 12.3945 140.913 12.3945C140.195 12.3945 139.626 12.551 139.205 12.8641C138.789 13.1771 138.509 13.5469 138.363 13.9733L135.626 13.5847C135.842 12.829 136.198 12.1974 136.695 11.6901C137.192 11.1773 137.799 10.794 138.517 10.5403C139.235 10.2812 140.028 10.1517 140.897 10.1517C141.496 10.1517 142.093 10.2219 142.687 10.3622C143.28 10.5026 143.823 10.7347 144.314 11.0585C144.805 11.377 145.199 11.8115 145.496 12.3621C145.798 12.9126 145.949 13.6008 145.949 14.4267V22.75H143.132V21.0416H143.035C142.857 21.3871 142.606 21.7109 142.282 22.0132C141.963 22.3101 141.561 22.5503 141.075 22.7338C140.595 22.9119 140.031 23.001 139.383 23.001ZM140.144 20.8473C140.733 20.8473 141.243 20.7312 141.674 20.4991C142.106 20.2616 142.438 19.9486 142.67 19.5599C142.908 19.1713 143.027 18.7476 143.027 18.2888V16.8233C142.935 16.8989 142.778 16.969 142.557 17.0338C142.341 17.0986 142.098 17.1553 141.828 17.2038C141.558 17.2524 141.291 17.2956 141.027 17.3334C140.762 17.3712 140.533 17.4035 140.339 17.4305C139.901 17.4899 139.51 17.5871 139.165 17.722C138.819 17.857 138.546 18.0459 138.347 18.2888C138.147 18.5263 138.047 18.8339 138.047 19.2118C138.047 19.7516 138.244 20.1591 138.638 20.4344C139.032 20.7097 139.534 20.8473 140.144 20.8473ZM151.828 6.16818V22.75H148.897V6.16818H151.828ZM161.052 10.3136V12.5807H153.902V10.3136H161.052ZM155.667 7.33409H158.598V19.0094C158.598 19.4034 158.658 19.7057 158.776 19.9162C158.901 20.1213 159.063 20.2616 159.262 20.3372C159.462 20.4128 159.683 20.4506 159.926 20.4506C160.11 20.4506 160.277 20.4371 160.428 20.4101C160.585 20.3831 160.703 20.3588 160.784 20.3372L161.278 22.6286C161.122 22.6825 160.898 22.7419 160.606 22.8067C160.32 22.8714 159.969 22.9092 159.554 22.92C158.82 22.9416 158.158 22.831 157.57 22.5881C156.982 22.3398 156.515 21.9565 156.169 21.4384C155.829 20.9202 155.662 20.2724 155.667 19.4952V7.33409ZM166.701 15.4631V22.75H163.77V6.16818H166.636V12.4268H166.782C167.073 11.7251 167.524 11.1719 168.134 10.767C168.749 10.3568 169.532 10.1517 170.482 10.1517C171.346 10.1517 172.099 10.3325 172.741 10.6942C173.383 11.0558 173.88 11.5848 174.231 12.2811C174.587 12.9774 174.765 13.8276 174.765 14.8315V22.75H171.834V15.2849C171.834 14.4483 171.618 13.7979 171.187 13.3337C170.76 12.8641 170.161 12.6293 169.389 12.6293C168.871 12.6293 168.407 12.7426 167.996 12.9693C167.592 13.1906 167.273 13.5118 167.041 13.9328C166.814 14.3538 166.701 14.8639 166.701 15.4631Z" fill="white"/>
<path fill-rule="evenodd" clip-rule="evenodd" d="M11.0333 0.250004C11.0333 1.18567 10.8513 2.11218 10.4979 2.97663C10.1444 3.84107 9.62637 4.62652 8.97327 5.28814C8.32017 5.94976 7.54483 6.47458 6.69151 6.83265C5.8382 7.19071 4.92362 7.375 4 7.375L4 14.5C5.84724 14.5 7.6764 14.1314 9.38303 13.4153C11.0897 12.6992 12.6404 11.6495 13.9465 10.3263C15.2527 9.00307 16.2889 7.43215 16.9958 5.70324C17.7027 3.97435 18.0665 2.12133 18.0665 0.25L11.0333 0.250004Z" fill="white"/>
</g>
<defs>
<filter id="filter0_d_209_45" x="0" y="0.25" width="178.765" height="36.5" filterUnits="userSpaceOnUse" color-interpolation-filters="sRGB">
<feFlood flood-opacity="0" result="BackgroundImageFix"/>
<feColorMatrix in="SourceAlpha" type="matrix" values="0 0 0 0 0 0 0 0 0 0 0 0 0 0 0 0 0 0 127 0" result="hardAlpha"/>
<feOffset dy="4"/>
<feGaussianBlur stdDeviation="2"/>
<feComposite in2="hardAlpha" operator="out"/>
<feColorMatrix type="matrix" values="0 0 0 0 0 0 0 0 0 0 0 0 0 0 0 0 0 0 0.25 0"/>
<feBlend mode="normal" in2="BackgroundImageFix" result="effect1_dropShadow_209_45"/>
<feBlend mode="normal" in="SourceGraphic" in2="effect1_dropShadow_209_45" result="shape"/>
</filter>
</defs>
</svg>
