<svg width="49" height="49" viewBox="0 0 49 49" fill="none" xmlns="http://www.w3.org/2000/svg">
<path d="M33.0073 13.5066H43.5139V24.0132" stroke="#F4B100" stroke-width="3.00567" stroke-linecap="round" stroke-linejoin="round"/>
<path d="M4.5 34.5103L15.8809 23.1294C16.1596 22.8507 16.4904 22.6296 16.8545 22.4787C17.2186 22.3279 17.6088 22.2503 18.0029 22.2503C18.3971 22.2503 18.7873 22.3279 19.1514 22.4787C19.5155 22.6296 19.8463 22.8507 20.125 23.1294L24.8829 27.8873C25.1615 28.166 25.4923 28.3871 25.8564 28.5379C26.2205 28.6888 26.6108 28.7664 27.0049 28.7664C27.399 28.7664 27.7893 28.6888 28.1534 28.5379C28.5175 28.3871 28.8483 28.166 29.1269 27.8873L42.0082 15.006" stroke="#F4B100" stroke-width="3.00567" stroke-linecap="round" stroke-linejoin="round"/>
</svg>
