<svg width="250" height="65" viewBox="0 0 250 65" fill="none" xmlns="http://www.w3.org/2000/svg">
<path d="M12.696 46.32C12.1413 46.32 11.6933 46.256 11.352 46.128C11.0107 46.0427 10.84 45.872 10.84 45.616C10.84 45.3173 11.0107 45.0827 11.352 44.912C11.6933 44.7413 12.2267 44.592 12.952 44.464C14.5733 44.1653 15.8107 43.6533 16.664 42.928C17.5173 42.16 17.944 41.008 17.944 39.472V14.64C17.944 12.6773 17.9013 11.184 17.816 10.16C17.7307 9.09333 17.5813 8.34666 17.368 7.92C17.1973 7.49333 16.9413 7.25867 16.6 7.216C16.0027 7.088 15.3627 7.024 14.68 7.024C14.04 6.98133 13.1653 6.96 12.056 6.96H9.048C8.024 6.96 7 7.17333 5.976 7.6C4.99467 7.984 4.26933 8.60266 3.8 9.456C3.672 9.66933 3.45867 9.98933 3.16 10.416C2.86133 10.8 2.54133 11.1413 2.2 11.44C1.85867 11.7387 1.51733 11.888 1.176 11.888C1.00533 11.888 0.877333 11.8027 0.792 11.632C0.749333 11.4613 0.728 11.2693 0.728 11.056C0.728 10.6293 0.834667 10.2027 1.048 9.776C1.64533 8.53866 2.072 7.45066 2.328 6.512C2.62667 5.53066 2.86133 4.37866 3.032 3.056C3.11733 2.33067 3.26667 1.904 3.48 1.776C3.736 1.648 3.94933 1.584 4.12 1.584C4.29067 1.584 4.54667 1.84 4.888 2.352C5.272 2.864 5.54933 3.29066 5.72 3.632C5.976 4.05866 6.552 4.37867 7.448 4.592C8.38667 4.80533 9.304 4.912 10.2 4.912H32.728C34.2213 4.912 35.4373 4.82667 36.376 4.656C37.3147 4.48533 38.1253 4.25067 38.808 3.952C39.32 3.696 39.7253 3.41866 40.024 3.12C40.3653 2.82133 40.792 2.672 41.304 2.672C41.432 2.672 41.5387 2.84266 41.624 3.184C41.7093 3.48266 41.752 3.80266 41.752 4.144C41.752 4.35733 41.7093 4.656 41.624 5.04C41.5813 5.424 41.5387 5.72266 41.496 5.936C41.368 6.704 41.24 7.25866 41.112 7.6C41.0267 7.94133 40.9627 8.24 40.92 8.496C40.8773 8.752 40.856 9.15733 40.856 9.712V10.48C40.856 10.864 40.7707 11.312 40.6 11.824C40.4293 12.2933 40.1733 12.528 39.832 12.528C39.5333 12.528 39.2987 12.2933 39.128 11.824C38.9573 11.3547 38.7867 10.7147 38.616 9.904C38.4453 9.008 37.9333 8.304 37.08 7.792C36.2267 7.23733 34.776 6.96 32.728 6.96H26.264C25.3253 6.96 24.6213 7.088 24.152 7.344C23.6827 7.6 23.384 8.24 23.256 9.264C23.128 10.288 23.064 11.9733 23.064 14.32V39.472C23.064 41.008 23.512 42.16 24.408 42.928C25.304 43.6533 26.5413 44.1653 28.12 44.464C28.8453 44.592 29.3787 44.7413 29.72 44.912C30.0613 45.0827 30.232 45.3173 30.232 45.616C30.232 45.872 30.0613 46.0427 29.72 46.128C29.3787 46.256 28.9307 46.32 28.376 46.32C27.224 46.32 26.264 46.2773 25.496 46.192C24.7707 46.1493 24.0667 46.1067 23.384 46.064C22.7013 46.0213 21.8693 46 20.888 46C19.8213 46 18.8827 46.0213 18.072 46.064C17.304 46.1067 16.4933 46.1493 15.64 46.192C14.8293 46.2773 13.848 46.32 12.696 46.32ZM37.356 46.192C36.9293 46.192 36.6093 46.128 36.396 46C36.1827 45.9147 36.076 45.744 36.076 45.488C36.076 45.1467 36.204 44.9333 36.46 44.848C36.716 44.72 37.0787 44.592 37.548 44.464C38.3587 44.2507 38.956 43.952 39.34 43.568C39.7667 43.1413 39.98 42.6293 39.98 42.032V28.272C39.98 27.12 39.8093 26.1173 39.468 25.264C39.1267 24.4107 38.4227 23.8773 37.356 23.664C37.1853 23.6213 37.036 23.5147 36.908 23.344C36.78 23.1733 36.716 23.0027 36.716 22.832C36.716 22.4053 36.908 22.1493 37.292 22.064C38.4013 21.7227 39.5533 21.232 40.748 20.592C41.9853 19.9093 42.9453 19.3547 43.628 18.928C43.884 18.7573 44.076 18.6507 44.204 18.608C44.3747 18.5227 44.5027 18.48 44.588 18.48C44.8013 18.48 44.908 18.6293 44.908 18.928C44.908 19.056 44.8867 19.376 44.844 19.888C44.844 20.4 44.8227 20.9973 44.78 21.68C44.78 22.3627 44.7587 23.0453 44.716 23.728C44.716 23.8133 44.7587 23.856 44.844 23.856C45.5267 23.0027 46.2733 22.256 47.084 21.616C47.9373 20.976 48.7907 20.464 49.644 20.08C50.54 19.696 51.3933 19.504 52.204 19.504C53.1 19.504 53.8253 19.696 54.38 20.08C54.9773 20.464 55.276 20.9547 55.276 21.552C55.276 21.9787 55.148 22.448 54.892 22.96C54.6787 23.472 54.38 23.92 53.996 24.304C53.612 24.688 53.2067 24.88 52.78 24.88C52.524 24.88 52.2467 24.8373 51.948 24.752C51.6493 24.624 51.3293 24.4747 50.988 24.304C50.6467 24.176 50.3053 24.048 49.964 23.92C49.6227 23.792 49.2813 23.728 48.94 23.728C47.916 23.728 46.9133 24.0907 45.932 24.816C44.9933 25.5413 44.524 26.9707 44.524 29.104V42.032C44.524 42.5867 44.8227 43.056 45.42 43.44C46.0173 43.7813 46.8493 44.1227 47.916 44.464C48.3853 44.592 48.748 44.72 49.004 44.848C49.26 44.976 49.388 45.1893 49.388 45.488C49.388 45.9573 48.9613 46.192 48.108 46.192C46.828 46.192 45.8467 46.128 45.164 46C44.524 45.9147 43.6493 45.872 42.54 45.872C41.8147 45.872 41.2173 45.8933 40.748 45.936C40.3213 45.9787 39.852 46.0213 39.34 46.064C38.8707 46.1493 38.2093 46.192 37.356 46.192ZM77.739 47.216C77.4403 47.216 77.291 47.0453 77.291 46.704C77.291 46.2773 77.3337 45.6587 77.419 44.848C77.547 43.9947 77.611 43.2907 77.611 42.736C77.611 42.6507 77.611 42.5867 77.611 42.544C77.611 42.4587 77.611 42.3947 77.611 42.352C75.947 43.9733 74.2617 45.1467 72.555 45.872C70.891 46.5547 69.0563 46.896 67.051 46.896C65.6857 46.896 64.4483 46.5973 63.339 46C62.2297 45.4453 61.355 44.6133 60.715 43.504C60.075 42.352 59.755 40.944 59.755 39.28V26.288C59.755 25.3493 59.5417 24.6027 59.115 24.048C58.6883 23.4933 57.9843 23.024 57.003 22.64C56.7897 22.5547 56.5977 22.448 56.427 22.32C56.2563 22.192 56.171 21.9573 56.171 21.616C56.171 21.232 56.2563 20.976 56.427 20.848C56.6403 20.72 56.875 20.6347 57.131 20.592C58.5817 20.5067 59.691 20.4 60.459 20.272C61.2697 20.1013 62.2723 19.8667 63.467 19.568C63.595 19.5253 63.6803 19.504 63.723 19.504C63.8083 19.504 63.8937 19.504 63.979 19.504C64.4483 19.504 64.6617 19.8027 64.619 20.4C64.491 21.3813 64.3843 22.2133 64.299 22.896C64.2563 23.536 64.235 24.3467 64.235 25.328V37.808C64.235 38.832 64.491 39.792 65.003 40.688C65.515 41.5413 66.1763 42.2453 66.987 42.8C67.8403 43.3547 68.715 43.632 69.611 43.632C70.7203 43.632 71.6803 43.568 72.491 43.44C73.3443 43.312 74.1763 42.9493 74.987 42.352C75.4563 42.0107 76.0537 41.456 76.779 40.688C77.5043 39.92 77.867 38.8747 77.867 37.552V25.84C77.867 24.944 77.5897 24.2827 77.035 23.856C76.523 23.3867 75.9257 23.0667 75.243 22.896C74.5603 22.7253 74.0057 22.64 73.579 22.64C73.195 22.64 72.875 22.576 72.619 22.448C72.363 22.2773 72.235 21.9787 72.235 21.552C72.235 21.168 72.363 20.912 72.619 20.784C72.9177 20.656 73.2377 20.592 73.579 20.592C74.9017 20.5493 75.9897 20.5067 76.843 20.464C77.739 20.3787 78.5283 20.272 79.211 20.144C79.9363 19.9733 80.683 19.7813 81.451 19.568C81.5363 19.5253 81.643 19.504 81.771 19.504C81.899 19.4613 82.0057 19.44 82.091 19.44C82.6457 19.44 82.923 19.6747 82.923 20.144C82.923 20.1867 82.9017 20.272 82.859 20.4C82.859 20.4853 82.8377 20.592 82.795 20.72C82.7523 20.848 82.6883 21.2107 82.603 21.808C82.5603 22.4053 82.4963 23.024 82.411 23.664C82.3683 24.304 82.347 24.7947 82.347 25.136V39.92C82.347 41.072 82.4537 41.904 82.667 42.416C82.923 42.8853 83.2003 43.12 83.499 43.12C83.8403 43.12 84.331 43.0987 84.971 43.056C85.6537 42.9707 86.1443 42.928 86.443 42.928C86.6563 42.928 86.8697 42.9707 87.083 43.056C87.2963 43.1413 87.403 43.376 87.403 43.76C87.403 44.1013 87.3177 44.336 87.147 44.464C86.9763 44.5493 86.763 44.6133 86.507 44.656C84.843 44.8693 83.4137 45.1893 82.219 45.616C81.0243 46.0427 79.9577 46.448 79.019 46.832C78.891 46.8747 78.699 46.9387 78.443 47.024C78.187 47.152 77.9523 47.216 77.739 47.216ZM96.001 46.896C94.6783 46.896 93.441 46.6827 92.289 46.256C91.137 45.872 90.1557 45.3173 89.345 44.592C89.1317 44.1227 88.961 43.3333 88.833 42.224C88.7477 41.1147 88.6837 40.1973 88.641 39.472C88.641 39.088 88.9183 38.896 89.473 38.896C89.6437 38.896 89.793 38.9387 89.921 39.024C90.0917 39.0667 90.1983 39.1733 90.241 39.344C90.7957 41.4347 91.6703 42.928 92.865 43.824C94.1023 44.72 95.3397 45.168 96.577 45.168C97.8143 45.168 98.8597 44.7627 99.713 43.952C100.609 43.0987 101.057 42.0533 101.057 40.816C101.057 39.664 100.673 38.6827 99.905 37.872C99.137 37.0187 97.793 35.9947 95.873 34.8C94.4223 33.904 93.249 33.0507 92.353 32.24C91.457 31.4293 90.7957 30.5973 90.369 29.744C89.985 28.8907 89.793 27.9307 89.793 26.864C89.793 25.4987 90.113 24.2613 90.753 23.152C91.393 22.0427 92.353 21.168 93.633 20.528C94.913 19.8453 96.513 19.504 98.433 19.504C99.713 19.504 100.78 19.632 101.633 19.888C102.486 20.144 103.126 20.4213 103.553 20.72C103.894 21.1893 104.172 21.936 104.385 22.96C104.641 23.9413 104.769 24.88 104.769 25.776C104.769 26.0747 104.556 26.224 104.129 26.224C103.873 26.224 103.617 26.1813 103.361 26.096C103.148 25.968 102.998 25.8187 102.913 25.648C102.358 24.24 101.654 23.1733 100.801 22.448C99.9903 21.68 98.9663 21.296 97.729 21.296C96.6623 21.296 95.7023 21.616 94.849 22.256C94.0383 22.896 93.633 23.8347 93.633 25.072C93.633 26.0533 93.9317 26.928 94.529 27.696C95.169 28.464 96.3423 29.3387 98.049 30.32C100.524 31.728 102.358 33.0507 103.553 34.288C104.79 35.4827 105.409 37.0827 105.409 39.088C105.409 41.392 104.534 43.2693 102.785 44.72C101.036 46.1707 98.7743 46.896 96.001 46.896ZM118.288 46.896C116.198 46.896 114.555 46.256 113.36 44.976C112.208 43.696 111.632 41.7973 111.632 39.28V24.432C111.632 24.0907 111.504 23.856 111.248 23.728C110.992 23.5573 110.438 23.472 109.584 23.472H109.2C108.987 23.472 108.795 23.344 108.624 23.088C108.496 22.7893 108.432 22.4907 108.432 22.192C108.432 22.1067 108.496 21.9787 108.624 21.808C108.752 21.6373 108.838 21.5307 108.88 21.488C109.734 20.8907 110.502 20.2933 111.184 19.696C111.91 19.0987 112.55 18.5227 113.104 17.968C113.702 17.3707 114.192 16.8373 114.576 16.368C114.79 16.1547 114.96 15.984 115.088 15.856C115.259 15.6853 115.451 15.6 115.664 15.6C115.878 15.6 116.07 15.6427 116.24 15.728C116.454 15.8133 116.539 16.0053 116.496 16.304L116.176 19.184C116.134 19.6533 116.24 19.9733 116.496 20.144C116.752 20.3147 117.158 20.4 117.712 20.4H125.008C125.179 20.4 125.328 20.5493 125.456 20.848C125.584 21.104 125.648 21.424 125.648 21.808C125.648 22.192 125.584 22.576 125.456 22.96C125.328 23.3013 125.179 23.472 125.008 23.472H118.672C117.606 23.472 116.902 23.5573 116.56 23.728C116.262 23.8987 116.112 24.4107 116.112 25.264V37.872C116.112 39.5787 116.475 40.9227 117.2 41.904C117.926 42.8853 118.971 43.376 120.336 43.376C121.574 43.376 122.534 43.2907 123.216 43.12C123.899 42.9067 124.518 42.608 125.072 42.224C125.158 42.1387 125.243 42.096 125.328 42.096C125.499 42.096 125.606 42.2027 125.648 42.416C125.734 42.5867 125.776 42.7787 125.776 42.992C125.776 43.2053 125.414 43.632 124.688 44.272C124.006 44.912 123.088 45.5093 121.936 46.064C120.827 46.6187 119.611 46.896 118.288 46.896ZM138.669 46.96C136.323 46.96 134.275 46.384 132.525 45.232C130.776 44.08 129.411 42.4587 128.429 40.368C127.448 38.2347 126.957 35.7813 126.957 33.008C126.957 30.5333 127.512 28.2933 128.621 26.288C129.773 24.24 131.288 22.5973 133.165 21.36C135.043 20.1227 137.091 19.504 139.309 19.504C141.016 19.504 142.531 19.8453 143.853 20.528C145.176 21.2107 146.2 22.1707 146.925 23.408C147.693 24.6027 148.077 25.9893 148.077 27.568C148.077 28.8907 147.437 29.552 146.157 29.552H132.653C132.056 29.552 131.629 29.7227 131.373 30.064C131.16 30.3627 131.053 30.9813 131.053 31.92C131.053 33.968 131.501 35.8453 132.397 37.552C133.293 39.216 134.488 40.56 135.981 41.584C137.475 42.5653 139.117 43.056 140.909 43.056C142.189 43.056 143.341 42.8213 144.365 42.352C145.432 41.84 146.371 41.1147 147.181 40.176C147.352 39.9627 147.48 39.8347 147.566 39.792C147.651 39.7067 147.757 39.664 147.885 39.664C148.227 39.664 148.397 39.8773 148.397 40.304C148.397 41.1147 148.013 42.0107 147.245 42.992C146.605 43.8027 145.837 44.5067 144.941 45.104C144.045 45.7013 143.064 46.1493 141.997 46.448C140.931 46.7893 139.821 46.96 138.669 46.96ZM132.781 27.568H138.605C139.629 27.568 140.504 27.5467 141.229 27.504C141.955 27.4613 142.659 27.376 143.341 27.248C143.555 27.2053 143.683 27.0773 143.726 26.864C143.811 26.608 143.853 26.2667 143.853 25.84C143.853 24.6027 143.299 23.5573 142.189 22.704C141.123 21.808 139.843 21.36 138.349 21.36C137.368 21.36 136.387 21.6587 135.405 22.256C134.424 22.8107 133.613 23.5147 132.973 24.368C132.333 25.2213 132.013 26.0747 132.013 26.928C132.013 27.3547 132.269 27.568 132.781 27.568ZM170.918 47.216C170.833 47.216 170.683 47.1307 170.47 46.96C170.299 46.7893 170.214 46.6613 170.214 46.576C170.214 46.1493 170.257 45.552 170.342 44.784C170.47 43.9733 170.534 43.2907 170.534 42.736V42.352C169.894 43.3333 168.87 44.336 167.462 45.36C166.054 46.384 164.283 46.896 162.15 46.896C159.718 46.896 157.606 46.256 155.814 44.976C154.065 43.696 152.699 42.0533 151.718 40.048C150.779 38.0427 150.31 35.9733 150.31 33.84C150.31 31.3653 150.886 29.04 152.038 26.864C153.19 24.688 154.833 22.9173 156.966 21.552C159.142 20.1867 161.723 19.504 164.71 19.504C165.563 19.504 166.417 19.5893 167.27 19.76C168.166 19.888 168.849 20.0373 169.318 20.208C169.702 20.336 169.979 20.4 170.15 20.4C170.449 20.4 170.598 19.888 170.598 18.864V9.776C170.598 8.02666 170.321 6.85333 169.766 6.256C169.211 5.65866 168.422 5.27466 167.398 5.104C167.014 5.01866 166.822 4.74133 166.822 4.272C166.822 3.888 166.993 3.632 167.334 3.504C169.211 3.03467 170.683 2.58666 171.75 2.16C172.817 1.73333 173.649 1.392 174.246 1.136C174.417 1.05067 174.566 1.008 174.694 1.008C174.865 0.965331 174.993 0.943996 175.078 0.943996C175.334 0.943996 175.483 1.072 175.526 1.328C175.526 1.584 175.483 2.032 175.398 2.672C175.355 3.26933 175.291 4.16533 175.206 5.36C175.121 6.55466 175.078 8.112 175.078 10.032V38.96C175.078 40.4107 175.185 41.4773 175.398 42.16C175.611 42.8 175.953 43.12 176.422 43.12C176.635 43.12 176.998 43.0987 177.51 43.056C178.065 43.0133 178.619 42.9707 179.174 42.928C179.942 42.8853 180.326 43.0773 180.326 43.504C180.326 43.8027 180.219 44.08 180.006 44.336C179.835 44.5493 179.643 44.656 179.43 44.656C178.235 44.8267 177.062 45.0827 175.91 45.424C174.758 45.7227 173.435 46.192 171.942 46.832C171.601 47.0027 171.366 47.1093 171.238 47.152C171.153 47.1947 171.046 47.216 170.918 47.216ZM164.454 43.568C165.563 43.568 166.651 43.2907 167.718 42.736C168.785 42.1387 169.723 41.3707 170.534 40.432L170.598 28.912C170.598 27.76 170.257 26.6293 169.574 25.52C168.934 24.4107 168.017 23.5147 166.822 22.832C165.67 22.1067 164.305 21.744 162.726 21.744C161.745 21.744 160.635 22.0427 159.398 22.64C158.161 23.2373 157.094 24.304 156.198 25.84C155.302 27.3333 154.854 29.5093 154.854 32.368C154.854 34.8 155.217 36.7627 155.942 38.256C156.667 39.7067 157.542 40.816 158.566 41.584C159.633 42.352 160.699 42.8853 161.766 43.184C162.875 43.44 163.771 43.568 164.454 43.568ZM207.273 46.896C206.335 46.896 205.396 46.8107 204.457 46.64C203.519 46.4693 202.623 46.2773 201.769 46.064C200.831 45.808 199.999 45.5733 199.273 45.36C198.591 45.1467 198.143 45.04 197.929 45.04C197.673 45.04 197.417 45.1253 197.161 45.296C196.948 45.4667 196.735 45.6587 196.521 45.872C196.308 46.0853 196.116 46.192 195.945 46.192C195.775 46.192 195.583 46.128 195.369 46C195.156 45.8293 195.049 45.6373 195.049 45.424C195.049 45.04 195.113 44.3787 195.241 43.44C195.412 42.5013 195.497 41.6267 195.497 40.816V9.776C195.497 8.66667 195.22 7.70667 194.665 6.896C194.111 6.08533 193.407 5.488 192.553 5.104C192.383 5.01866 192.191 4.912 191.977 4.784C191.807 4.61333 191.721 4.4 191.721 4.144C191.721 3.93066 191.807 3.78133 191.977 3.696C192.148 3.61066 192.319 3.54666 192.489 3.504C193.044 3.376 193.791 3.14133 194.729 2.8C195.711 2.45867 196.628 2.11733 197.481 1.776C198.335 1.43466 198.911 1.2 199.209 1.072C199.465 0.943998 199.657 0.879997 199.785 0.879997C199.871 0.879997 199.956 0.922665 200.041 1.008C200.127 1.09333 200.169 1.2 200.169 1.328C200.169 1.49867 200.127 2.224 200.041 3.504C199.999 4.74133 199.977 6.256 199.977 8.048V21.168C199.977 21.9787 200.02 22.5333 200.105 22.832C200.191 23.088 200.34 23.2373 200.553 23.28C201.876 22.1707 203.412 21.2747 205.161 20.592C206.911 19.8667 208.489 19.504 209.897 19.504C212.073 19.504 214.015 20.0587 215.721 21.168C217.471 22.2773 218.857 23.792 219.881 25.712C220.905 27.5893 221.417 29.7227 221.417 32.112C221.417 35.0133 220.82 37.5947 219.625 39.856C218.431 42.0747 216.767 43.8027 214.633 45.04C212.543 46.2773 210.089 46.896 207.273 46.896ZM208.745 44.912C210.367 44.912 211.753 44.4213 212.905 43.44C214.1 42.416 215.017 41.0507 215.657 39.344C216.297 37.5947 216.617 35.6533 216.617 33.52C216.617 31.856 216.297 30.1493 215.657 28.4C215.06 26.6507 214.1 25.1787 212.777 23.984C211.497 22.7893 209.833 22.192 207.785 22.192C206.079 22.192 204.585 22.4693 203.305 23.024C202.025 23.5787 200.916 24.2827 199.977 25.136V37.552C199.977 39.0453 200.383 40.3467 201.193 41.456C202.047 42.5653 203.135 43.4187 204.457 44.016C205.823 44.6133 207.252 44.912 208.745 44.912ZM224.826 64.24C224.015 64.24 223.269 64.0267 222.586 63.6C221.903 63.216 221.562 62.5547 221.562 61.616C221.562 60.848 221.733 60.1653 222.074 59.568C222.458 59.0133 222.991 58.736 223.674 58.736C224.143 58.736 224.591 58.8 225.018 58.928C225.487 59.056 225.893 59.12 226.234 59.12C226.49 59.12 226.703 59.056 226.874 58.928C227.087 58.8427 227.279 58.672 227.45 58.416C227.919 57.648 228.453 56.688 229.05 55.536C229.69 54.384 230.33 53.0827 230.97 51.632C231.653 50.1813 232.293 48.6453 232.89 47.024C233.018 46.64 233.082 46.1493 233.082 45.552C233.082 45.2107 233.061 44.8907 233.018 44.592C232.975 44.2507 232.911 43.952 232.826 43.696L225.402 24.944C225.103 24.176 224.698 23.5147 224.186 22.96C223.717 22.3627 223.162 21.9787 222.522 21.808C222.181 21.68 221.839 21.5307 221.498 21.36C221.199 21.1893 221.05 20.9547 221.05 20.656C221.05 20.4 221.199 20.2507 221.498 20.208C221.839 20.1227 222.117 20.08 222.33 20.08C223.183 20.08 223.802 20.1013 224.186 20.144C224.613 20.1867 224.997 20.2507 225.338 20.336C225.722 20.3787 226.277 20.4 227.002 20.4C227.77 20.4 228.346 20.3787 228.73 20.336C229.114 20.2507 229.519 20.1867 229.946 20.144C230.373 20.1013 231.013 20.08 231.866 20.08C232.122 20.08 232.399 20.144 232.698 20.272C232.997 20.3573 233.146 20.528 233.146 20.784C233.146 21.0827 232.911 21.3813 232.442 21.68C232.015 21.936 231.631 22.1067 231.29 22.192C230.863 22.32 230.543 22.5547 230.33 22.896C230.117 23.1947 230.01 23.6427 230.01 24.24C230.01 24.496 230.074 24.816 230.202 25.2C230.33 25.5413 230.437 25.8187 230.522 26.032L235.706 38.832C235.791 39.088 235.919 39.216 236.09 39.216C236.218 39.216 236.325 39.088 236.41 38.832L240.826 27.12C240.954 26.8213 241.061 26.4373 241.146 25.968C241.274 25.456 241.338 25.0507 241.338 24.752C241.338 23.9413 241.21 23.3867 240.954 23.088C240.741 22.7467 240.442 22.4907 240.058 22.32C239.717 22.1493 239.311 21.936 238.842 21.68C238.415 21.3813 238.202 21.0827 238.202 20.784C238.202 20.528 238.351 20.3573 238.65 20.272C238.991 20.144 239.269 20.08 239.482 20.08C240.079 20.08 240.677 20.144 241.274 20.272C241.914 20.3573 242.831 20.4 244.026 20.4C244.837 20.4 245.413 20.3787 245.754 20.336C246.138 20.2507 246.458 20.1867 246.714 20.144C246.97 20.1013 247.333 20.08 247.802 20.08C248.015 20.08 248.271 20.1227 248.57 20.208C248.911 20.2507 249.082 20.4 249.082 20.656C249.082 20.9547 248.911 21.1893 248.57 21.36C248.271 21.5307 247.951 21.68 247.61 21.808C246.97 21.9787 246.287 22.4907 245.562 23.344C244.837 24.1547 244.261 25.072 243.834 26.096L235.13 46.832C235.087 46.96 234.853 47.5147 234.426 48.496C234.042 49.4773 233.551 50.6933 232.954 52.144C232.357 53.5947 231.695 55.152 230.97 56.816C230.287 58.48 229.626 60.08 228.986 61.616C228.602 62.4693 228.047 63.1093 227.322 63.536C226.597 64.0053 225.765 64.24 224.826 64.24Z" fill="black"/>
</svg>
